HIERARCHY
ROOT Hips
{
    OFFSET 0.000000 0.000000 0.000000
    CHANNELS 6 Xposition Yposition Zposition Zrotation Xrotation Yrotation
    JOINT Spine
    {
        OFFSET -0.000000 7.236184 0.000000
        CHANNELS 3 Zrotation Xrotation Yrotation
        JOINT Spine1
        {
            OFFSET -0.000000 20.420147 0.000000
            CHANNELS 3 Zrotation Xrotation Yrotation
            JOINT Neck
            {
                OFFSET -0.000000 20.336288 1.848754
                CHANNELS 3 Zrotation Xrotation Yrotation
                JOINT Head
                {
                    OFFSET -0.000000 12.354461 -1.764923
                    CHANNELS 3 Zrotation Xrotation Yrotation
                    End Site
                    {
                        OFFSET -0.000000 22.061537 0.000000
                    }
                }
            }
            JOINT LeftShoulder
            {
                OFFSET 3.573296 18.396038 -0.314103
                CHANNELS 3 Zrotation Xrotation Yrotation
                JOINT LeftArm
                {
                    OFFSET 10.880760 0.000000 0.000000
                    CHANNELS 3 Zrotation Xrotation Yrotation
                    JOINT LeftForeArm
                    {
                        OFFSET 27.185530 0.000000 0.000000
                        CHANNELS 3 Zrotation Xrotation Yrotation
                        JOINT LeftHand
                        {
                            OFFSET 27.825975 0.000000 0.000000
                            CHANNELS 3 Zrotation Xrotation Yrotation
                            End Site
                            {
                                OFFSET 13.236923 0.000000 0.000000
                            }
                        }
                    }
                }
            }
            JOINT RightShoulder
            {
                OFFSET -3.474926 18.396038 -0.314103
                CHANNELS 3 Zrotation Xrotation Yrotation
                JOINT RightArm
                {
                    OFFSET -10.880760 0.000000 0.000000
                    CHANNELS 3 Zrotation Xrotation Yrotation
                    JOINT RightForeArm
                    {
                        OFFSET -27.185530 0.000000 0.000000
                        CHANNELS 3 Zrotation Xrotation Yrotation
                        JOINT RightHand
                        {
                            OFFSET -27.825975 0.000000 0.000000
                            CHANNELS 3 Zrotation Xrotation Yrotation
                            End Site
                            {
                                OFFSET -13.236923 0.000000 0.000000
                            }
                        }
                    }
                }
            }
        }
    }
    JOINT LeftUpLeg
    {
        OFFSET 8.824615 0.000000 0.000000
        CHANNELS 3 Zrotation Xrotation Yrotation
        JOINT LeftLeg
        {
            OFFSET -0.000000 -35.111282 0.000000
            CHANNELS 3 Zrotation Xrotation Yrotation
            JOINT LeftFoot
            {
                OFFSET -0.000000 -42.324711 0.000000
                CHANNELS 3 Zrotation Xrotation Yrotation
                JOINT LeftToeBase
                {
                    OFFSET -0.000000 -5.735999 13.236923
                    CHANNELS 3 Zrotation Xrotation Yrotation
                    End Site
                    {
                        OFFSET -0.000000 0.000000 3.529846
                    }
                }
            }
        }
    }
    JOINT RightUpLeg
    {
        OFFSET -8.824615 0.000000 0.000000
        CHANNELS 3 Zrotation Xrotation Yrotation
        JOINT RightLeg
        {
            OFFSET -0.000000 -35.111282 0.000000
            CHANNELS 3 Zrotation Xrotation Yrotation
            JOINT RightFoot
            {
                OFFSET -0.000000 -42.324711 0.000000
                CHANNELS 3 Zrotation Xrotation Yrotation
                JOINT RightToeBase
                {
                    OFFSET -0.000000 -5.735999 13.236923
                    CHANNELS 3 Zrotation Xrotation Yrotation
                    End Site
                    {
                        OFFSET -0.000000 0.000000 3.529846
                    }
                }
            }
        }
    }
}
MOTION
Frames:    10
Frame Time:    0.008333
-5.209743    81.786812    108.172081    1.589648    -1.164205    -146.959503    -3.596024    -13.629739    -1.248549    0.765036    15.249605    -0.921044    1.961324    16.619007    -12.713833    28.586306    9.130710    -11.474812    5.317916    11.789632    -13.999969    -33.009483    32.902843    -69.407433    17.739075    -42.291218    -116.588028    26.242285    -15.304828    7.185382    1.291213    12.631784    4.750367    48.358299    12.211474    45.338131    -12.462203    -44.765625    131.103424    -20.274418    -20.682905    -5.324839    7.558540    -18.206646    -3.651043    1.932190    27.252789    2.319827    -10.848806    -9.055556    -14.600806    -0.062923    -0.469031    0.069807    -7.217169    3.170645    -8.799064    12.148181    17.270460    -17.841993    0.000000    0.000000    0.000000    0.000000    0.000000    0.000000    
-5.208932    81.794777    108.197510    1.623430    -1.229564    -147.121124    -3.579370    -13.575672    -1.257185    0.715914    15.145323    -0.926217    1.958625    16.612518    -12.680249    28.599928    9.172989    -11.449470    5.334283    11.735358    -14.011786    -32.949162    32.811287    -69.469170    17.816727    -42.351009    -116.499817    26.228043    -15.300094    7.196231    1.230751    12.564906    4.798106    48.340267    12.170200    45.425888    -12.463493    -44.809486    131.082962    -20.299227    -20.744213    -5.358082    7.585962    -18.236910    -3.552319    1.914283    27.223185    2.407827    -10.845359    -9.042837    -14.604844    -0.080417    -0.452554    0.089212    -7.248597    3.028064    -8.652408    12.157071    17.299110    -17.843981    0.000000    0.000000    0.000000    0.000000    0.000000    0.000000    
-5.208234    81.802841    108.222595    1.656091    -1.295165    -147.281754    -3.563737    -13.522696    -1.265392    0.666973    15.041965    -0.930826    1.956014    16.604965    -12.647159    28.612095    9.212588    -11.424072    5.350278    11.681751    -14.023656    -32.890335    32.719891    -69.527496    17.893446    -42.409714    -116.414490    26.213593    -15.294475    7.205726    1.170732    12.498644    4.845890    48.321533    12.127481    45.513309    -12.463718    -44.851604    131.064178    -20.323097    -20.804712    -5.390916    7.612564    -18.266140    -3.454903    1.895923    27.192543    2.495747    -10.841929    -9.030159    -14.608449    -0.097751    -0.436287    0.108439    -7.280014    2.887025    -8.502391    12.166892    17.325436    -17.849325    0.000000    0.000000    0.000000    0.000000    0.000000    0.000000    
-5.207695    81.811211    108.247337    1.687471    -1.361925    -147.442764    -3.549190    -13.470939    -1.272831    0.617064    14.938966    -0.934496    1.953033    16.595064    -12.614629    28.622526    9.247917    -11.398339    5.365794    11.628940    -14.035742    -32.834717    32.627949    -69.580994    17.968941    -42.466606    -116.334259    26.198246    -15.286491    7.213029    1.110800    12.432383    4.893879    48.300682    12.082455    45.601677    -12.461527    -44.890583    131.048615    -20.345287    -20.864309    -5.423520    7.638154    -18.293806    -3.358854    1.876293    27.159416    2.585201    -10.838468    -9.017300    -14.611568    -0.115263    -0.420081    0.127861    -7.311916    2.746256    -8.349827    12.176537    17.350145    -17.856730    0.000000    0.000000    0.000000    0.000000    0.000000    0.000000    
-5.207364    81.819870    108.271469    1.717124    -1.429615    -147.603088    -3.535750    -13.421321    -1.279265    0.565797    14.837631    -0.936811    1.950165    16.583075    -12.583288    28.630325    9.275599    -11.372085    5.380832    11.577398    -14.047965    -32.784832    32.536350    -69.627686    18.041452    -42.519958    -116.262184    26.181747    -15.275222    7.217432    1.051669    12.365541    4.941039    48.277012    12.036791    45.690346    -12.456455    -44.925346    131.037140    -20.364996    -20.922195    -5.455470    7.662238    -18.319391    -3.265826    1.855106    27.123549    2.676162    -10.835048    -9.004489    -14.613796    -0.132686    -0.404311    0.147185    -7.344354    2.606580    -8.197394    12.185318    17.373734    -17.864712    0.000000    0.000000    0.000000    0.000000    0.000000    0.000000    
-5.207332    81.828949    108.295250    1.745320    -1.499559    -147.765289    -3.523293    -13.373431    -1.284711    0.511860    14.736984    -0.937762    1.947798    16.568394    -12.552965    28.634724    9.294017    -11.344796    5.395849    11.526240    -14.060314    -32.741020    32.444801    -69.667709    18.111782    -42.570499    -116.198441    26.163788    -15.260298    7.218691    0.992583    12.296232    4.987247    48.249420    11.991203    45.781143    -12.448211    -44.955692    131.029755    -20.382208    -20.979061    -5.487037    7.684832    -18.343050    -3.175634    1.831453    27.084007    2.771399    -10.831593    -8.991527    -14.614999    -0.150097    -0.388731    0.166494    -7.378047    2.465394    -8.046077    12.192084    17.397778    -17.871290    0.000000    0.000000    0.000000    0.000000    0.000000    0.000000    
-5.207700    81.838280    108.318237    1.771686    -1.570645    -147.926544    -3.511934    -13.328601    -1.289250    0.455872    14.639719    -0.937400    1.946664    16.550821    -12.524322    28.634678    9.301868    -11.316873    5.410583    11.476305    -14.072912    -32.704185    32.355438    -69.700249    18.178381    -42.617458    -116.144577    26.144901    -15.241980    7.216978    0.934982    12.224970    5.031149    48.217594    11.947652    45.872623    -12.436570    -44.980667    131.026566    -20.396616    -21.033705    -5.517865    7.705355    -18.364450    -3.090954    1.805575    27.041473    2.870259    -10.828221    -8.978711    -14.615085    -0.166890    -0.373548    0.185116    -7.412561    2.324361    -7.903583    12.195210    17.423975    -17.872692    0.000000    0.000000    0.000000    0.000000    0.000000    0.000000    
-5.208594    81.847855    108.340599    1.796602    -1.643617    -148.088348    -3.501655    -13.286848    -1.293297    0.397216    14.546062    -0.936039    1.946947    16.528828    -12.496869    28.629768    9.300058    -11.288113    5.425848    11.427195    -14.085791    -32.674038    32.268417    -69.726395    18.242420    -42.662361    -116.099739    26.125025    -15.220795    7.212726    0.878094    12.150974    5.072722    48.180939    11.907109    45.966431    -12.421834    -45.000580    131.026840    -20.408779    -21.086617    -5.548170    7.723709    -18.384005    -3.012294    1.777168    26.995872    2.974823    -10.825043    -8.966095    -14.613982    -0.183211    -0.359383    0.203215    -7.448438    2.181244    -7.775191    12.192991    17.455465    -17.863974    0.000000    0.000000    0.000000    0.000000    0.000000    0.000000    
-5.210036    81.857483    108.362114    1.820061    -1.717481    -148.248993    -3.492410    -13.248729    -1.296947    0.336663    14.458036    -0.933934    1.949427    16.501377    -12.470678    28.618944    9.289676    -11.258955    5.441534    11.378919    -14.098812    -32.650703    32.185997    -69.746246    18.303173    -42.704929    -116.063820    26.104883    -15.197490    7.206033    0.822938    12.074497    5.110975    48.139065    11.872166    46.061516    -12.404767    -45.016270    131.029816    -20.418835    -21.137476    -5.577718    7.739863    -18.401924    -2.941331    1.746335    26.948462    3.084743    -10.822120    -8.954049    -14.611573    -0.198151    -0.346204    0.219781    -7.485243    2.036674    -7.667187    12.184148    17.494415    -17.841608    0.000000    0.000000    0.000000    0.000000    0.000000    0.000000    
-5.211978    81.867073    108.382889    1.842464    -1.792349    -148.409637    -3.484291    -13.214370    -1.300365    0.274444    14.376564    -0.931255    1.954512    16.467262    -12.445288    28.601540    9.271877    -11.229243    5.457923    11.331271    -14.111840    -32.633671    32.108658    -69.760826    18.361252    -42.745987    -116.035698    26.084486    -15.172724    7.197332    0.769468    11.995212    5.145589    48.091064    11.844463    46.158955    -12.385912    -45.028465    131.034332    -20.427456    -21.186621    -5.606575    7.754122    -18.418770    -2.877613    1.713440    26.900095    3.200714    -10.819798    -8.942858    -14.608027    -0.211400    -0.334543    0.234471    -7.522905    1.889333    -7.580713    12.168175    17.542439    -17.804052    0.000000    0.000000    0.000000    0.000000    0.000000    0.000000    
